<?xml version="1.0" encoding="UTF-8" standalone="no"?>
<svg
   version="1.1"
   height="128"
   width="128"
   id="svg1"
   sodipodi:docname="heptagram.svg"
   inkscape:version="1.3 (0e150ed6c4, 2023-07-21)"
   xmlns:inkscape="http://www.inkscape.org/namespaces/inkscape"
   xmlns:sodipodi="http://sodipodi.sourceforge.net/DTD/sodipodi-0.dtd"
   xmlns="http://www.w3.org/2000/svg"
   xmlns:svg="http://www.w3.org/2000/svg">
  <defs
     id="defs1" />
  <sodipodi:namedview
     id="namedview1"
     pagecolor="#ffffff"
     bordercolor="#000000"
     borderopacity="0.25"
     inkscape:showpageshadow="2"
     inkscape:pageopacity="0.0"
     inkscape:pagecheckerboard="0"
     inkscape:deskcolor="#d1d1d1"
     inkscape:zoom="1"
     inkscape:cx="144"
     inkscape:cy="114.5"
     inkscape:current-layer="svg1" />
  <g
     id="polygon1"
     transform="matrix(0.09285377,0,0,0.09285377,26.022808,27.198623)"
     style="fill:#ffffff;fill-opacity:1">
    <path
       style="color:#000000;fill:#ffffff;fill-opacity:1;-inkscape-stroke:none"
       d="m 409,-43.117188 -23.45508,29.41211 -103.03515,129.201168 -12.52149,15.70118 -47.84766,60 -26.86328,33.68359 -26.86132,33.68359 17.07812,74.82032 105.14063,-131.8418 8.25,-10.3457 47.84765,-60 31.13281,-39.04102 h 0.002 L 409,53.117188 447.34375,101.19727 h 76.74414 z M 47.033203,131.19727 92.175781,328.98438 h 0.002 l 21.544929,94.39843 9.58789,42.00391 9.58593,42.00195 69.14063,33.29688 -34.09766,-149.40039 h -0.002 l -23.44531,-102.72071 -7.6875,-33.68164 -14.53516,-63.68554 h 61.5 l 47.84766,-60 z m 338.070317,0 -47.84766,60 h 168.62891 13.23046 76.74415 49.93554 49.93555 l -13.68555,59.95898 47.84766,59.99805 41.07422,-179.95703 h -60.73828 -162.2168 -76.74414 -85.47266 z m 157.93554,90 105.14063,131.84179 8.25,10.34375 v 0.002 l 47.84765,59.99804 31.13477,39.04102 31.13477,39.04101 -55.41016,26.6836 -17.07617,74.82031 L 860.36719,522.87891 733.87695,364.26562 721.35547,348.5625 673.50781,288.56445 646.64453,254.88086 619.7832,221.19727 Z M 72.720703,378.56055 -42.367188,522.87891 l 182.783208,88.02343 18.0957,8.71485 69.14258,33.29687 38.81445,18.69141 38.81641,18.69336 L 374.42773,657 235.58789,590.13867 210.57617,578.09375 141.43359,544.79688 109.53516,529.43555 51.453125,501.46484 89.798828,453.38086 Z m 575.169917,22.23242 -33.875,148.42383 -6.59179,28.87695 -24.54102,107.52344 h -0.002 l -14.75781,64.66211 -55.40821,-26.6836 -69.14453,33.29883 166.30664,80.08789 45.14258,-197.78515 4.46875,-19.58008 17.07813,-74.82031 9.58593,-42.00196 9.58594,-42.00195 z M 572.85352,594.74219 420.92188,667.9082 409,673.65039 l -69.14258,33.29688 -44.99023,21.66601 -44.99024,21.66602 -13.68359,-59.95703 -69.14258,-33.29688 41.07227,179.95703 174.85937,-84.20703 v -0.002 l 95.16016,-45.82617 30.89453,-14.87696 46.73828,-22.50781 z"
       id="path1" />
    <path
       style="color:#000000;fill:#ffffff;fill-opacity:1;-inkscape-stroke:none"
       d="m 409,-55.146484 -5.86328,7.353515 -23.45508,29.41211 -103.03516,129.201169 -12.52148,15.70117 -47.84766,60 -26.86328,33.6836 -29.11328,36.50781 21.34766,93.52344 114.84961,-144.01758 8.25,-10.3457 47.84765,-60 28.88086,-36.2168 h 0.002 L 409,65.144531 443.73242,108.69727 h 95.92969 z m 0,24.05664 99.51562,124.78711 H 450.95508 L 409,41.087891 374.25586,84.65625 h -0.002 l -33.38477,41.86523 -47.84766,60 -8.25,10.34571 -95.42968,119.66601 -12.81055,-56.11718 24.60937,-30.85938 26.86329,-33.68359 47.84765,-60 L 288.373,120.17188 391.4082,-9.0292969 Z M 37.628906,123.69727 l 2.091797,9.16796 46.474609,203.61914 h 0.002 l 20.212898,88.56641 9.58789,42.00391 10.39062,45.52343 86.42578,41.6211 -38.89453,-170.41406 h -0.002 l -22.11328,-96.88868 -7.6875,-33.68164 -12.44336,-54.51757 h 55.70703 l 59.81055,-75 z m 343.863284,0 -2.25196,2.82421 -57.55859,72.17579 h 184.20313 13.23046 76.74414 49.93555 40.53125 l -12.39648,54.31054 59.80859,74.99805 46.63281,-204.30859 h -70.14257 -162.2168 -76.74414 -85.47266 z m -325.05469,15 h 159.60742 l -35.88672,45 h -67.29297 l 16.62696,72.85351 7.6875,33.68164 24.77734,108.55274 h 0.002 l 29.30079,128.38476 -51.85547,-24.9707 -8.78125,-38.48047 -9.58789,-42.00391 -22.876957,-100.23047 h -0.002 z m 332.27734,0 h 82.55274 76.74414 162.2168 51.33398 l -35.51758,155.60546 -35.88476,-44.99804 14.97461,-65.60742 H 645.79492 595.85937 519.11523 505.88477 352.82812 Z m 138.75,75 9.71094,12.17578 105.14063,131.84179 6.61328,8.29297 v 0.002 l 49.48437,62.04882 31.13477,39.04102 25.27148,31.6875 -50.1914,24.17187 -21.34571,93.52344 188.81055,-90.92773 -132.35352,-165.96485 -12.52148,-15.70312 -47.84766,-59.99805 -26.86328,-33.68359 -29.11328,-36.50781 z m 31.14649,15 h 57.56054 l 24.60938,30.85937 26.86328,33.68359 47.84766,59.99805 12.52148,15.70313 120.62695,151.25976 -143.80273,69.25195 12.80664,-56.11523 60.63086,-29.19727 -37,-46.39257 -31.13477,-39.04102 -46.21093,-57.94726 v -0.002 l -9.88672,-12.39453 z M 76.566406,361.70898 66.857422,373.88477 -54.09375,525.55664 l 191.25586,92.10352 18.0957,8.71484 69.14258,33.29687 38.81445,18.69141 42.07032,20.25977 L 391.71289,657 238.8418,583.38086 213.83008,571.33594 144.6875,538.03906 112.78906,522.67773 63.179687,498.78711 97.914062,455.23242 Z m 567.478514,22.23047 -3.4668,15.18555 -33.875,148.42187 -6.59179,28.87696 -23.20899,101.69336 h -0.002 l -13.99609,61.32422 -50.18946,-24.16993 -86.42968,41.62305 188.81054,90.92578 47.23633,-206.95508 4.46875,-19.58007 17.07813,-74.82032 9.58593,-42.00195 10.38868,-45.52148 z m -575.171873,11.47266 12.810547,56.11719 -41.957032,52.61132 66.554688,32.05274 31.89844,15.36133 69.14258,33.29687 25.01171,12.04492 L 357.14062,657 l -51.85546,24.97461 -35.5625,-17.12695 -38.81446,-18.69141 -69.14258,-33.29688 -18.0957,-8.71484 -174.310545,-83.94336 z m 582.865233,22.23242 35.88477,45 -8.78321,38.48242 -9.58593,42.00196 -17.07813,74.82031 -4.46875,19.58008 -43.04883,188.61523 -143.80078,-69.25 51.85742,-24.97461 60.62696,29.19727 15.51953,-68 h 0.002 l 25.87305,-113.35352 6.59179,-28.87695 z m -68.10742,163.58399 -14.03125,6.75585 -151.93164,73.16602 -11.92188,5.74219 -69.14257,33.29687 -44.99024,21.66602 -36.51758,17.58594 -12.39453,-54.3086 -86.42773,-41.62109 46.63086,204.30859 187.57812,-90.33203 v -0.002 l 90.91406,-43.78125 30.89454,-14.87696 49.99218,-24.07617 z m -21.55664,27.02929 -12.80664,56.11524 -43.48438,20.93945 -30.89453,14.87695 -99.40625,47.8711 v 0.002 l -162.14062,78.08203 -35.51368,-155.60351 51.85743,24.9707 14.97265,65.60547 53.46289,-25.7461 44.99024,-21.66601 69.14258,-33.29688 11.92187,-5.74218 z"
       id="path2" />
  </g>
</svg>
