<?xml version="1.0" encoding="UTF-8" standalone="no"?>
<!-- Created with Inkscape (http://www.inkscape.org/) -->

<svg
   version="1.1"
   id="svg132"
   width="128"
   height="128"
   viewBox="0 0 128 128"
   sodipodi:docname="hexagram.svg"
   inkscape:version="1.2.2 (b0a8486541, 2022-12-01)"
   xmlns:inkscape="http://www.inkscape.org/namespaces/inkscape"
   xmlns:sodipodi="http://sodipodi.sourceforge.net/DTD/sodipodi-0.dtd"
   xmlns="http://www.w3.org/2000/svg"
   xmlns:svg="http://www.w3.org/2000/svg">
  <defs
     id="defs136" />
  <sodipodi:namedview
     id="namedview134"
     pagecolor="#ffffff"
     bordercolor="#000000"
     borderopacity="0.25"
     inkscape:showpageshadow="2"
     inkscape:pageopacity="0.0"
     inkscape:pagecheckerboard="0"
     inkscape:deskcolor="#d1d1d1"
     showgrid="false"
     inkscape:zoom="1.2362219"
     inkscape:cx="241.4615"
     inkscape:cy="205.06027"
     inkscape:window-width="1920"
     inkscape:window-height="1018"
     inkscape:window-x="0"
     inkscape:window-y="24"
     inkscape:window-maximized="1"
     inkscape:current-layer="g138" />
  <g
     inkscape:groupmode="layer"
     inkscape:label="Image"
     id="g138">
    <path
       style="fill:#ffffff;fill-opacity:1;stroke-width:0.243971"
       d="m 35.472459,73.658542 4.431022,-7.778579 23.672458,40.967617 0.494073,0.80356 6.983025,-12.097867 9.129416,-0.132984 L 79.829174,95.97473 64.044942,123 Z M 41.18423,44.197406 h 8.943651 L 49.83731,44.74634 26.553653,85.254655 40.15997,85.79444 44.499383,93.3954 12.734973,93.4795 Z M 53.577911,85.674819 101.77914,85.550469 95.063939,73.57967 99.420176,66.154791 115.21027,93.271079 58.039762,93.471351 Z M 101.76684,42.36762 88.020772,42.238307 83.565401,34.560552 H 115.26503 L 86.895482,83.720692 H 77.910859 Z M 12.754912,34.438573 h 57.290966 l 4.418088,7.685078 -47.932284,0.482526 6.50107,11.617035 -4.366178,7.539273 z M 63.95116,20.507009 57.003348,32.364826 47.929298,32.49752 63.872296,5.0000008 92.51291,54.078371 88.193848,61.763309 Z"
       id="path300"
       sodipodi:nodetypes="ccccccccccccccccccccccccccccccccccccccccccccc" />
  </g>
</svg>
