<?xml version="1.0" encoding="UTF-8" standalone="no"?>
<!-- Created with Inkscape (http://www.inkscape.org/) -->

<svg
   version="1.1"
   id="svg132"
   width="512"
   height="512"
   viewBox="0 0 512 512"
   sodipodi:docname="Qaoun White.svg"
   inkscape:version="1.2.2 (732a01da63, 2022-12-09)"
   xmlns:inkscape="http://www.inkscape.org/namespaces/inkscape"
   xmlns:sodipodi="http://sodipodi.sourceforge.net/DTD/sodipodi-0.dtd"
   xmlns="http://www.w3.org/2000/svg"
   xmlns:svg="http://www.w3.org/2000/svg">
  <defs
     id="defs136" />
  <sodipodi:namedview
     id="namedview134"
     pagecolor="#ffffff"
     bordercolor="#000000"
     borderopacity="0.25"
     inkscape:showpageshadow="2"
     inkscape:pageopacity="0.0"
     inkscape:pagecheckerboard="0"
     inkscape:deskcolor="#d1d1d1"
     showgrid="false"
     inkscape:zoom="1.2362219"
     inkscape:cx="243.07934"
     inkscape:cy="204.65581"
     inkscape:window-width="1920"
     inkscape:window-height="1017"
     inkscape:window-x="-8"
     inkscape:window-y="-8"
     inkscape:window-maximized="1"
     inkscape:current-layer="g138" />
  <g
     inkscape:groupmode="layer"
     inkscape:label="Image"
     id="g138">
    <path
       style="fill:#ffffff;stroke-width:0.761442;fill-opacity:1"
       d="m 166.96451,286.14465 13.82938,-24.27723 73.88259,127.86141 1.54201,2.50794 21.79429,-37.75786 28.49323,-0.41505 -1.1026,1.73042 -49.26317,84.34684 z m 17.82665,-91.94926 h 27.91344 l -0.90686,1.71325 -72.66913,126.42789 42.4658,1.6847 13.54345,23.72287 L 96,348.00666 Z m 38.68112,129.45249 150.43775,-0.38809 -20.95838,-37.36131 13.59599,-23.17331 49.28145,84.6309 -178.43121,0.62506 z m 150.3994,-135.16331 -42.90201,-0.40359 -13.90535,-23.96255 H 416 L 327.4576,317.54898 H 299.41628 Z M 96.06223,163.73771 h 178.80716 l 13.78901,23.98542 -149.59837,1.50598 20.29006,36.25719 -13.627,23.53032 z m 159.78532,-43.4809 -21.68437,37.00866 -28.32044,0.41415 49.75869,-85.820737 89.38836,153.175357 -13.47993,23.98497 z"
       id="path300"
       sodipodi:nodetypes="ccccccccccccccccccccccccccccccccccccccccccccc" />
  </g>
</svg>
