<?xml version="1.0" encoding="UTF-8" standalone="no"?>
<!-- Created with Inkscape (http://www.inkscape.org/) -->

<svg
   width="180"
   height="180"
   viewBox="0 0 180 180"
   version="1.1"
   id="svg5"
   inkscape:export-filename="Lanouq.png"
   inkscape:export-xdpi="853.33002"
   inkscape:export-ydpi="853.33002"
   sodipodi:docname="Lanouq.svg"
   inkscape:version="1.3.2 (091e20ef0f, 2023-11-25)"
   xml:space="preserve"
   xmlns:inkscape="http://www.inkscape.org/namespaces/inkscape"
   xmlns:sodipodi="http://sodipodi.sourceforge.net/DTD/sodipodi-0.dtd"
   xmlns="http://www.w3.org/2000/svg"
   xmlns:svg="http://www.w3.org/2000/svg"><sodipodi:namedview
     id="namedview7"
     pagecolor="#ffffff"
     bordercolor="#666666"
     borderopacity="1.0"
     inkscape:pageshadow="2"
     inkscape:pageopacity="0.0"
     inkscape:pagecheckerboard="0"
     inkscape:document-units="px"
     showgrid="false"
     inkscape:zoom="1"
     inkscape:cx="108.5"
     inkscape:cy="78.5"
     inkscape:window-width="1920"
     inkscape:window-height="1011"
     inkscape:window-x="0"
     inkscape:window-y="32"
     inkscape:window-maximized="1"
     inkscape:current-layer="layer1"
     inkscape:showpageshadow="2"
     inkscape:deskcolor="#d1d1d1"><inkscape:grid
       type="xygrid"
       id="grid846"
       originx="0"
       originy="0"
       spacingy="1"
       spacingx="1"
       units="px"
       visible="false" /></sodipodi:namedview><defs
     id="defs2" /><g
     inkscape:label="Camada 1"
     inkscape:groupmode="layer"
     id="layer1"><rect
       style="fill:#000000;stroke-width:4;fill-opacity:1"
       id="rect848"
       width="180"
       height="180"
       x="0"
       y="0" /><path
       style="-inkscape-font-specification:'Noto Sans Arabic Semi-Bold';fill:#ffffff;stroke-width:0.963874;stroke-linecap:round;stroke-linejoin:round"
       d="m 120.02322,122.49358 q 0,-0.95835 -0.13219,-2.01587 -0.0991,-1.0575 -0.26436,-2.04891 -0.1322,-0.9914 -0.26438,-1.71846 l 3.93259,-0.56179 q 0.13219,0.66094 0.26438,1.7515 0.13219,1.09055 0.19827,2.24718 0.0991,1.15666 0.0991,2.08198 0,1.65235 -0.26438,3.17251 -0.26438,1.52016 -0.82619,2.90813 -0.52874,1.35495 -1.38797,2.64378 l -0.49571,0.76008 q -0.89226,1.25578 -2.115,2.44549 -1.22275,1.15663 -2.74291,2.24719 h 2.90814 q 1.12359,0 1.71845,-0.16524 0.59485,-0.19829 0.79313,-0.52875 0.23133,-0.33048 0.23133,-0.76008 0,-0.694 -1.05751,-1.91672 -1.0575,-1.2558 -2.90814,-2.80901 -1.81758,-1.58625 -4.23002,-3.33776 -2.41244,-1.78454 -5.15534,-3.56909 l 2.08196,-3.04032 q 3.56908,2.34635 6.1137,4.29612 2.57767,1.94977 4.29612,3.53604 1.71845,1.58626 2.70987,2.90813 0.99141,1.32189 1.42102,2.44549 0.4296,1.09054 0.4296,2.04892 0,0.85922 -0.29743,1.71844 -0.26436,0.82618 -0.9253,1.52016 -0.62789,0.66094 -1.71845,1.05751 -1.05751,0.39657 -2.70986,0.39657 h -8.88965 v -3.76737 q 3.40385,-2.44548 5.38666,-4.65963 2.01588,-2.24719 2.90815,-4.4944 0.89227,-2.28025 0.89227,-4.79182 z m -22.90159,17.87845 0.33047,-3.89954 q 1.52016,0 2.41243,-0.19829 0.89227,-0.19828 1.25579,-0.76008 0.39657,-0.59486 0.39657,-1.6854 0,-0.89227 -0.26438,-2.115 -0.23133,-1.22274 -0.66094,-2.57769 -0.39656,-1.35492 -0.82618,-2.54461 l 3.83346,-1.15665 q 0.42962,1.09054 0.79313,2.54463 0.39657,1.42102 0.66094,2.90814 0.29744,1.45407 0.29744,2.74291 0,1.61929 -0.39658,2.77594 -0.39657,1.15664 -1.1236,1.94978 -0.69399,0.76008 -1.71844,1.22274 -1.02446,0.42961 -2.28025,0.62789 -1.25579,0.16523 -2.70986,0.16523 z m 4.56049,-17.94454 q -0.89227,0 -1.52016,-0.59483 -0.62789,-0.62791 -0.62789,-1.52017 0,-0.89228 0.62789,-1.52016 0.62789,-0.66095 1.52016,-0.66095 0.85921,0 1.48712,0.66095 0.62789,0.62788 0.62789,1.52016 0,0.89226 -0.62789,1.52017 -0.62791,0.59483 -1.48712,0.59483 z m -19.332501,25.38013 -0.793131,-3.89956 q 2.181104,-0.29742 3.899551,-0.72702 1.718447,-0.42961 2.90814,-1.22276 1.222741,-0.79311 1.817587,-2.11499 0.627894,-1.35495 0.627894,-3.43689 0,-2.04893 -0.693988,-3.33774 -0.66094,-1.28885 -1.78454,-1.28885 -0.693988,0 -1.22274,0.49571 -0.495706,0.49571 -0.760083,1.25579 -0.264375,0.72703 -0.264375,1.42102 0,0.42961 0.198281,0.79313 0.198283,0.33046 0.727034,0.5618 0.561801,0.19828 1.586259,0.26437 1.057506,0.0662 2.775952,-0.0991 h 6.08065 q 1.02446,0 1.48712,0.5618 0.46266,0.52875 0.46266,1.32188 0,0.82616 -0.6279,1.42102 -0.59484,0.59485 -1.65234,0.59485 h -8.65833 q -1.850634,0 -3.271657,-0.46266 -1.387975,-0.46265 -2.181103,-1.48712 -0.793131,-1.05751 -0.793131,-2.77595 0,-1.45407 0.495706,-2.84205 0.495705,-1.42102 1.321882,-2.57767 0.859223,-1.15664 2.015869,-1.81757 1.156646,-0.694 2.511575,-0.694 1.817587,0 3.172516,1.09054 1.387975,1.09056 2.18111,3.04034 0.793125,1.91674 0.793125,4.46135 0,3.46994 -1.454068,5.91542 -1.454073,2.47852 -4.230024,3.86651 -2.775952,1.42101 -6.675501,1.71844 z m -17.415776,-1.38799 q -2.115011,0 -3.998694,-0.46265 -1.850633,-0.46266 -3.304704,-1.45406 -1.421022,-0.9914 -2.214151,-2.54463 -0.793129,-1.5532 -0.793129,-3.73431 0,-0.66095 0.09915,-1.58626 0.132188,-0.95835 0.528752,-2.28025 0.396565,-1.32187 1.222741,-3.00728 l 3.403844,1.38799 q -0.495706,1.12359 -0.793128,1.94977 -0.264375,0.82618 -0.396564,1.4871 -0.132189,0.66096 -0.132189,1.35495 0,1.25578 0.528753,2.21414 0.528753,0.92531 1.45407,1.52017 0.958364,0.62789 2.280246,0.92532 1.321881,0.29743 2.908138,0.29743 1.982824,0 3.502987,-0.29743 1.553212,-0.29743 2.643764,-0.82618 1.1236,-0.49572 1.78454,-1.1897 0.693989,-0.72703 0.991412,-1.58625 0.33047,-0.89227 0.462658,-1.91674 0.132188,-1.0575 0.132188,-2.2472 0,-1.42102 -0.297423,-2.51157 -0.264376,-1.09056 -0.826177,-1.71845 -0.561799,-0.62789 -1.354928,-0.62789 -0.66094,0 -1.189693,0.46266 -0.528752,0.46266 -0.826177,1.15663 -0.297423,0.694 -0.297423,1.42103 0,0.5618 0.264376,0.95837 0.264376,0.39657 0.793131,0.62789 0.561799,0.19829 1.42102,0.19829 0.826178,0 1.751494,-0.19829 0.925318,-0.19828 1.619305,-0.56179 l 0.23133,3.3708 q -0.793129,0.59484 -2.048915,0.89227 -1.222742,0.26437 -2.34634,0.26437 -1.685401,0 -2.941188,-0.46265 -1.222741,-0.46267 -1.883681,-1.52018 -0.660942,-1.05748 -0.660942,-2.77593 0,-1.35494 0.429611,-2.70986 0.46266,-1.35494 1.288835,-2.47854 0.859223,-1.15665 2.01587,-1.81759 1.156646,-0.69399 2.577669,-0.69399 2.01587,0 3.370798,1.22274 1.354929,1.1897 2.048917,3.17252 0.727035,1.94978 0.727035,4.23004 0,1.98282 -0.396564,3.63516 -0.363517,1.65237 -1.057506,2.9412 -0.826176,1.48711 -2.081963,2.54461 -1.222742,1.05751 -2.842046,1.71844 -1.586259,0.66094 -3.56908,0.95837 -1.949775,0.29741 -4.230021,0.29741 z m 10.508957,-23.893 q -0.859222,0 -1.454068,-0.59483 -0.594848,-0.6279 -0.594848,-1.45408 0,-0.82617 0.594848,-1.45407 0.594846,-0.6279 1.454068,-0.6279 0.826178,0 1.421024,0.6279 0.594848,0.6279 0.594848,1.45407 0,0.82618 -0.594848,1.45408 -0.594846,0.59483 -1.421024,0.59483 z m -5.254479,-0.033 q -0.859223,0 -1.487117,-0.59484 -0.594846,-0.59485 -0.594846,-1.42102 0,-0.82617 0.594846,-1.45407 0.594848,-0.62789 1.487117,-0.62789 0.826177,0 1.421022,0.62789 0.594848,0.6279 0.594848,1.45407 0,0.82617 -0.594848,1.42102 -0.594845,0.59484 -1.421022,0.59484 z"
       id="text1"
       aria-label="لانوق" /><path
       id="path1"
       style="color:#000000;fill:#ffffff;fill-opacity:1;stroke-width:0.0763928;-inkscape-stroke:none"
       d="m 90,32.192344 -0.448224,0.561177 -1.791684,2.247115 -7.870912,9.870483 -0.956521,1.199262 -3.65547,4.58315 -2.052447,2.573974 -2.22308,2.787863 1.630659,7.145104 8.773366,-11.00245 0.629674,-0.789493 3.655463,-4.584358 2.206259,-2.766235 L 90,41.381482 l 2.653277,3.327411 h 7.327753 z m -28.370128,13.661737 0.159818,0.700571 3.549726,15.555564 h 0.0012 l 1.544143,6.765376 0.731812,3.208448 0.794298,3.477617 6.601953,3.179611 -2.971751,-13.017643 -1.68954,-7.402264 -0.58641,-2.572761 -0.950522,-4.16498 h 4.2551 l 4.568732,-5.729539 z m 26.268413,0 -0.171836,0.2163 -4.396898,5.513239 h 14.071509 1.0106 5.86292 3.81529 3.0955 l -0.94691,4.149356 4.56873,5.729544 3.56294,-15.608439 h -5.35823 -12.39278 -5.862923 -6.528655 z m 11.151455,6.87593 0.74143,0.930088 8.03193,10.071161 0.50591,0.634486 3.78044,4.739371 2.37809,2.982526 1.93108,2.421357 -3.83451,1.845765 -1.63067,7.145101 14.4236,-6.946825 -10.11081,-12.677583 -0.95653,-1.200459 -3.65547,-4.583151 -2.05244,-2.572773 -2.22309,-2.789064 z m -34.445748,11.30647 -0.741423,0.930088 -9.239609,11.586472 14.61105,7.036945 1.381919,0.665723 5.281319,2.543926 2.96571,1.427582 3.214456,1.547749 6.601953,-3.179613 L 77.001578,80.971565 75.090935,80.051085 69.80841,77.507161 67.37143,76.333136 63.581374,74.509 66.234652,71.181586 Z m 43.351288,1.699165 -0.26436,1.159603 -2.58839,11.337719 -0.5035,2.206251 -1.77245,7.768771 -1.06948,4.685308 -3.83452,-1.84697 -6.601952,3.179604 14.423592,6.946848 3.60861,-15.810335 0.34127,-1.496072 1.30502,-5.715119 0.73181,-3.208448 0.7931,-3.477628 z m -4.61439,15.071281 -1.07188,0.515519 -11.606893,5.59015 -0.910864,0.438612 -5.281317,2.542724 -3.437966,1.655895 -2.789071,1.343471 -0.946911,-4.14936 -6.603153,-3.179613 3.562936,15.608455 14.329867,-6.90118 6.944432,-3.344238 2.36006,-1.136771 3.8201,-1.839761 z" /></g></svg>
