<?xml version="1.0" encoding="UTF-8" standalone="no"?>
<!-- Created with Inkscape (http://www.inkscape.org/) -->

<svg
   width="180"
   height="180"
   viewBox="0 0 180 180"
   version="1.1"
   id="svg5"
   inkscape:export-filename="Lanouq.png"
   inkscape:export-xdpi="853.33002"
   inkscape:export-ydpi="853.33002"
   sodipodi:docname="Lanouq.svg"
   inkscape:version="1.3.2 (091e20ef0f, 2023-11-25)"
   xml:space="preserve"
   xmlns:inkscape="http://www.inkscape.org/namespaces/inkscape"
   xmlns:sodipodi="http://sodipodi.sourceforge.net/DTD/sodipodi-0.dtd"
   xmlns="http://www.w3.org/2000/svg"
   xmlns:svg="http://www.w3.org/2000/svg"><sodipodi:namedview
     id="namedview7"
     pagecolor="#ffffff"
     bordercolor="#666666"
     borderopacity="1.0"
     inkscape:pageshadow="2"
     inkscape:pageopacity="0.0"
     inkscape:pagecheckerboard="0"
     inkscape:document-units="px"
     showgrid="false"
     inkscape:zoom="1"
     inkscape:cx="156.5"
     inkscape:cy="46.5"
     inkscape:window-width="1920"
     inkscape:window-height="1011"
     inkscape:window-x="0"
     inkscape:window-y="32"
     inkscape:window-maximized="1"
     inkscape:current-layer="layer1"
     inkscape:showpageshadow="2"
     inkscape:deskcolor="#d1d1d1"><inkscape:grid
       type="xygrid"
       id="grid846"
       originx="0"
       originy="0"
       spacingy="1"
       spacingx="1"
       units="px"
       visible="false" /></sodipodi:namedview><defs
     id="defs2" /><g
     inkscape:label="Camada 1"
     inkscape:groupmode="layer"
     id="layer1"><rect
       style="fill:#000000;stroke-width:4;fill-opacity:1"
       id="rect848"
       width="180"
       height="180"
       x="0"
       y="0" /><path
       style="-inkscape-font-specification:'Noto Sans Arabic Semi-Bold';fill:#ffffff;stroke-width:1.56663;stroke-linecap:round;stroke-linejoin:round"
       d="m 138.79818,134.93589 q 0,-1.55768 -0.21486,-3.27649 -0.16113,-1.71881 -0.4297,-3.3302 -0.21484,-1.61139 -0.42969,-2.79308 l 6.39183,-0.91312 q 0.21485,1.07426 0.4297,2.84678 0.21486,1.77253 0.32228,3.65248 0.16115,1.87996 0.16115,3.38392 0,2.68565 -0.42971,5.15645 -0.42971,2.47079 -1.34283,4.72673 -0.8594,2.20224 -2.25594,4.29704 l -0.8057,1.2354 q -1.45024,2.04109 -3.43763,3.97476 -1.98737,1.87995 -4.45817,3.65247 h 4.72674 q 1.82624,0 2.79308,-0.26856 0.96683,-0.32228 1.28911,-0.85941 0.37599,-0.53713 0.37599,-1.23539 0,-1.12798 -1.71881,-3.11535 -1.71882,-2.04109 -4.72675,-4.56561 -2.95421,-2.57821 -6.87526,-5.42501 -3.92104,-2.90049 -8.37921,-5.801 l 3.38391,-4.94159 q 5.801,3.81363 9.93689,6.98269 4.18961,3.16906 6.98269,5.74729 2.79308,2.57822 4.40447,4.72673 1.61138,2.14852 2.30965,3.97476 0.69826,1.77253 0.69826,3.33021 0,1.39653 -0.48342,2.79307 -0.42969,1.34282 -1.50395,2.47078 -1.02054,1.07427 -2.79308,1.71882 -1.71881,0.64456 -4.40446,0.64456 h -14.44877 v -6.12327 q 5.53242,-3.97476 8.7552,-7.57352 3.2765,-3.65248 4.72674,-7.30496 1.45025,-3.7062 1.45025,-7.78838 z m -37.22306,29.05869 0.53713,-6.33812 q 2.4708,0 3.92105,-0.32227 1.45024,-0.32228 2.04108,-1.2354 0.64456,-0.96684 0.64456,-2.73936 0,-1.45025 -0.42971,-3.43763 -0.37598,-1.98738 -1.07425,-4.18962 -0.64456,-2.20222 -1.34283,-4.13589 l 6.23071,-1.87996 q 0.69827,1.77253 1.28911,4.1359 0.64455,2.30967 1.07426,4.72674 0.48342,2.36337 0.48342,4.45818 0,2.63194 -0.64456,4.51188 -0.64456,1.87996 -1.82624,3.16907 -1.12797,1.23539 -2.79307,1.98738 -1.66511,0.69827 -3.7062,1.02054 -2.0411,0.26856 -4.40446,0.26856 z m 7.41239,-29.16612 q -1.45025,0 -2.4708,-0.96683 -1.02054,-1.02055 -1.02054,-2.4708 0,-1.45024 1.02054,-2.47078 1.02055,-1.07427 2.4708,-1.07427 1.39653,0 2.41708,1.07427 1.02054,1.02054 1.02054,2.47078 0,1.45025 -1.02054,2.4708 -1.02055,0.96683 -2.41708,0.96683 z M 77.56546,176.08 76.276347,169.74187 q 3.545054,-0.48342 6.338128,-1.18169 2.793074,-0.69825 4.726739,-1.98738 1.987379,-1.28911 2.954211,-3.43762 1.020546,-2.20223 1.020546,-5.58615 0,-3.3302 -1.127971,-5.42499 -1.074259,-2.09481 -2.900499,-2.09481 -1.127971,0 -1.987379,0.80569 -0.805694,0.8057 -1.235398,2.04109 -0.429703,1.18168 -0.429703,2.30966 0,0.69826 0.322277,1.2891 0.322278,0.53714 1.181685,0.91313 0.91312,0.32227 2.578221,0.4297 1.718814,0.10743 4.511887,-0.16114 h 9.883179 q 1.6651,0 2.41709,0.91312 0.75198,0.85941 0.75198,2.14852 0,1.34282 -1.02055,2.30965 -0.96683,0.96683 -2.68564,0.96683 H 87.502352 q -3.007924,0 -5.317581,-0.75198 -2.255943,-0.75197 -3.545053,-2.41708 -1.289112,-1.71881 -1.289112,-4.51188 0,-2.36337 0.805695,-4.61932 0.805694,-2.30966 2.148518,-4.18961 1.396536,-1.87995 3.276488,-2.9542 1.879954,-1.12798 4.082184,-1.12798 2.954212,0 5.156443,1.77252 2.255943,1.77253 3.545054,4.9416 1.289111,3.11535 1.289111,7.25125 0,5.63985 -2.36337,9.61461 -2.36337,4.02847 -6.875257,6.28442 -4.511887,2.30965 -10.850012,2.79307 z m -28.306696,-2.25595 q -3.437629,0 -6.499268,-0.75197 -3.007924,-0.75199 -5.371294,-2.36337 -2.309655,-1.61139 -3.598766,-4.13591 -1.28911,-2.5245 -1.28911,-6.06955 0,-1.07426 0.161138,-2.57822 0.214853,-1.55768 0.859407,-3.7062 0.644555,-2.14851 1.987379,-4.88788 l 5.532433,2.25595 q -0.805695,1.82624 -1.289111,3.16906 -0.429703,1.34283 -0.644555,2.41708 -0.214852,1.07426 -0.214852,2.20223 0,2.04109 0.859407,3.59876 0.859407,1.50397 2.36337,2.47081 1.557675,1.02054 3.706193,1.50396 2.148518,0.48341 4.726738,0.48341 3.222777,0 5.693572,-0.48341 2.524509,-0.48342 4.297036,-1.34283 1.82624,-0.8057 2.900499,-1.93366 1.127972,-1.18168 1.611388,-2.57823 0.53713,-1.45024 0.75198,-3.11535 0.214853,-1.71881 0.214853,-3.65248 0,-2.30965 -0.483416,-4.08217 -0.429704,-1.77253 -1.342824,-2.79308 -0.91312,-1.02054 -2.20223,-1.02054 -1.074258,0 -1.933667,0.75198 -0.859406,0.75198 -1.342823,1.87994 -0.483417,1.12798 -0.483417,2.30967 0,0.91311 0.429704,1.55767 0.429703,0.64456 1.289111,1.02055 0.91312,0.32228 2.309655,0.32228 1.342825,0 2.846786,-0.32228 1.503964,-0.32228 2.631934,-0.91312 l 0.375991,5.47872 q -1.289109,0.96683 -3.330201,1.45025 -1.98738,0.4297 -3.813619,0.4297 -2.739361,0 -4.780452,-0.75198 -1.987379,-0.75198 -3.061638,-2.4708 -1.074259,-1.71881 -1.074259,-4.51188 0,-2.20224 0.698268,-4.40446 0.751982,-2.20223 2.094805,-4.02847 1.396536,-1.87996 3.276489,-2.95422 1.879953,-1.12797 4.18961,-1.12797 3.27649,0 5.478719,1.98738 2.202232,1.93367 3.330203,5.15644 1.181686,3.16906 1.181686,6.87526 0,3.22278 -0.644557,5.90842 -0.590841,2.68565 -1.718814,4.78045 -1.342822,2.41709 -3.383915,4.1359 -1.987379,1.71882 -4.619313,2.79307 -2.578221,1.07426 -5.800997,1.55769 -3.169063,0.4834 -6.875256,0.4834 z m 17.080714,-38.83446 q -1.396537,0 -2.363369,-0.96682 -0.966833,-1.02055 -0.966833,-2.36337 0,-1.34283 0.966833,-2.36338 0.966832,-1.02054 2.363369,-1.02054 1.342826,0 2.309657,1.02054 0.966835,1.02055 0.966835,2.36338 0,1.34282 -0.966835,2.36337 -0.966831,0.96682 -2.309657,0.96682 z m -8.540357,-0.0537 q -1.396537,0 -2.417083,-0.96682 -0.966833,-0.96684 -0.966833,-2.30966 0,-1.34282 0.966833,-2.36337 0.966834,-1.02054 2.417083,-1.02054 1.342823,0 2.309655,1.02054 0.966834,1.02055 0.966834,2.36337 0,1.34282 -0.966834,2.30966 -0.966832,0.96682 -2.309655,0.96682 z"
       id="text1"
       aria-label="لانوق" /><path
       id="path1"
       style="color:#000000;fill:#ffffff;fill-opacity:1;stroke-width:0.124165;-inkscape-stroke:none"
       d="m 89.999998,4.7894291 -0.72852,0.912109 -2.91211,3.652344 -12.79297,16.0429689 -1.55468,1.949218 -5.941411,7.449219 -3.335939,4.183594 -3.61328,4.53125 2.65039,11.613281 14.25977,-17.882813 1.023439,-1.283203 5.941401,-7.451171 3.585939,-4.496094 3.41797,-4.285156 4.3125,5.408203 h 11.910153 z m -46.11133,22.2050779 0.25976,1.138672 5.76954,25.283203 h 0.002 l 2.50977,10.996094 1.18945,5.214843 1.29101,5.652344 10.73047,5.167969 -4.83013,-21.158203 -2.74609,-12.03125 -0.95312,-4.181641 -1.54493,-6.769531 h 6.91602 l 7.42578,-9.3125 z m 42.69531,0 -0.279291,0.351562 -7.14649,8.960938 h 22.871093 1.64258 9.5293 6.20117 5.03125 l -1.53906,6.74414 7.42578,9.3125 5.79102,-25.36914 h -8.70899 -20.14258 -9.529293 -10.61133 z m 18.125002,11.175781 1.20508,1.511719 13.05469,16.36914 0.82226,1.03125 6.14453,7.703125 3.86524,4.847657 3.13867,3.935547 -6.23242,3 -2.65039,11.613281 L 147.5,76.890991 131.0664,56.285522 l -1.55468,-1.951172 -5.94141,-7.449218 -3.33594,-4.181641 -3.61328,-4.533203 z m -55.986332,18.376953 -1.20507,1.511719 -15.01758,18.832031 23.74804,11.4375 2.2461,1.082031 8.58398,4.134766 4.82031,2.320312 5.22461,2.515626 10.73047,-5.167969 -18.98047,-9.140625 -3.10546,-1.496094 -8.58594,-4.134766 -3.96094,-1.908203 -6.16016,-2.964843 4.3125,-5.408204 z m 70.460942,2.761719 -0.42969,1.884766 -4.20703,18.427734 -0.81836,3.585937 -2.88086,12.626953 -1.73828,7.61524 -6.23242,-3.00196 -10.730472,5.16797 23.443362,11.29102 5.86524,-25.69727 0.55468,-2.43164 2.1211,-9.289063 1.18945,-5.214843 1.28906,-5.652344 z m -7.5,24.496094 -1.74219,0.83789 -18.865232,9.085938 -1.48047,0.71289 -8.58398,4.132813 -5.58789,2.691405 -4.53321,2.1836 -1.53906,-6.744146 -10.73242,-5.167968 5.79101,25.369144 23.29102,-11.2168 11.287115,-5.43555 3.835937,-1.847654 6.20898,-2.990234 z" /></g></svg>
