<?xml version="1.0" encoding="UTF-8" standalone="no"?>
<!-- Created with Inkscape (http://www.inkscape.org/) -->

<svg
   version="1.1"
   id="svg132"
   width="128"
   height="128"
   viewBox="0 0 128 128"
   sodipodi:docname="hexagram.svg"
   inkscape:version="1.2.2 (b0a8486541, 2022-12-01)"
   xmlns:inkscape="http://www.inkscape.org/namespaces/inkscape"
   xmlns:sodipodi="http://sodipodi.sourceforge.net/DTD/sodipodi-0.dtd"
   xmlns="http://www.w3.org/2000/svg"
   xmlns:svg="http://www.w3.org/2000/svg">
  <defs
     id="defs136" />
  <sodipodi:namedview
     id="namedview134"
     pagecolor="#000000"
     bordercolor="#000000"
     borderopacity="0.25"
     inkscape:showpageshadow="2"
     inkscape:pageopacity="0.0"
     inkscape:pagecheckerboard="0"
     inkscape:deskcolor="#000000"
     showgrid="false"
     inkscape:zoom="1"
     inkscape:cx="103.5"
     inkscape:cy="42"
     inkscape:window-width="1635"
     inkscape:window-height="749"
     inkscape:window-x="50"
     inkscape:window-y="118"
     inkscape:window-maximized="0"
     inkscape:current-layer="g138" />
  <g
     inkscape:groupmode="layer"
     inkscape:label="Image"
     id="g138">
    <path
       style="fill:#ffffff;fill-opacity:1;stroke-width:0.198484"
       d="m 40.791154,71.857795 3.604898,-6.328335 19.258949,33.329587 0.401955,0.653745 5.68111,-9.842333 7.427324,-0.108187 -0.287415,0.451065 L 64.036559,112 Z m 4.646866,-23.96838 h 7.276187 l -0.236391,0.446591 -18.942639,32.955915 11.069547,0.439148 3.530366,6.183835 -25.842232,0.06847 z m 10.082992,33.744336 39.214551,-0.101162 -5.463207,-9.738962 3.544062,-6.040578 12.846172,22.060703 -46.511594,0.162937 z M 94.725573,46.400778 83.542318,46.295576 79.917613,40.049265 H 105.70714 L 82.626831,80.043953 H 75.317308 Z M 22.309079,39.950024 h 46.609604 l 3.594375,6.25227 -38.995757,0.392561 5.289002,9.45115 -3.552142,6.13364 z M 63.960264,28.615871 58.307807,38.262905 50.925529,38.370862 63.896108,16 87.196942,55.928166 83.683131,62.180322 Z"
       id="path300"
       sodipodi:nodetypes="ccccccccccccccccccccccccccccccccccccccccccccc" />
  </g>
</svg>
