<?xml version="1.0" encoding="UTF-8" standalone="no"?>
<!-- Created with Inkscape (http://www.inkscape.org/) -->

<svg
   version="1.1"
   id="svg132"
   width="128"
   height="128"
   viewBox="0 0 128 128"
   sodipodi:docname="hexagram.svg"
   inkscape:version="1.2.2 (b0a8486541, 2022-12-01)"
   xmlns:inkscape="http://www.inkscape.org/namespaces/inkscape"
   xmlns:sodipodi="http://sodipodi.sourceforge.net/DTD/sodipodi-0.dtd"
   xmlns="http://www.w3.org/2000/svg"
   xmlns:svg="http://www.w3.org/2000/svg">
  <defs
     id="defs136" />
  <sodipodi:namedview
     id="namedview134"
     pagecolor="#000000"
     bordercolor="#000000"
     borderopacity="0.25"
     inkscape:showpageshadow="2"
     inkscape:pageopacity="0.0"
     inkscape:pagecheckerboard="0"
     inkscape:deskcolor="#000000"
     showgrid="false"
     inkscape:zoom="1"
     inkscape:cx="104"
     inkscape:cy="42"
     inkscape:window-width="1920"
     inkscape:window-height="1011"
     inkscape:window-x="0"
     inkscape:window-y="32"
     inkscape:window-maximized="1"
     inkscape:current-layer="g138" />
  <g
     inkscape:groupmode="layer"
     inkscape:label="Image"
     id="g138">
    <path
       style="fill:#ffffff;fill-opacity:1;stroke-width:0.264646"
       d="m 33.054871,74.47706 4.806531,-8.43778 25.678599,44.43945 0.53594,0.87166 7.574812,-13.123111 9.9031,-0.14425 -0.38322,0.60142 L 64.048744,128 Z m 6.195822,-31.957839 h 9.701582 l -0.315188,0.595454 -25.256851,43.94122 14.759396,0.585531 4.707154,8.245113 -34.456309,0.0913 z m 13.443989,44.992447 52.286068,-0.134883 -7.284277,-12.985282 4.725417,-8.054104 17.12823,29.41427 -62.01546,0.21725 z m 52.272748,-46.977296 -14.911007,-0.14027 -4.83294,-8.328415 h 34.386037 l -30.773747,53.32625 h -9.74603 z M 8.412105,31.933366 h 62.146138 l 4.7925,8.33636 -51.994342,0.523415 7.052003,12.601533 -4.73619,8.178187 z M 63.947018,16.821162 56.410409,29.683874 46.567371,29.827817 63.861476,1e-6 l 31.067777,53.237554 -4.68508,8.336208 z"
       id="path300"
       sodipodi:nodetypes="ccccccccccccccccccccccccccccccccccccccccccccc" />
  </g>
</svg>
