<?xml version="1.0" encoding="UTF-8" standalone="no"?>
<!-- Created with Inkscape (http://www.inkscape.org/) -->

<svg
   width="128"
   height="128"
   viewBox="0 0 128 128"
   version="1.1"
   id="svg5"
   inkscape:export-filename="qufaal.png"
   inkscape:export-xdpi="853.33002"
   inkscape:export-ydpi="853.33002"
   sodipodi:docname="octagram.svg"
   inkscape:version="1.2.2 (b0a8486541, 2022-12-01)"
   xmlns:inkscape="http://www.inkscape.org/namespaces/inkscape"
   xmlns:sodipodi="http://sodipodi.sourceforge.net/DTD/sodipodi-0.dtd"
   xmlns="http://www.w3.org/2000/svg"
   xmlns:svg="http://www.w3.org/2000/svg">
  <sodipodi:namedview
     id="namedview7"
     pagecolor="#ffffff"
     bordercolor="#666666"
     borderopacity="1.0"
     inkscape:pageshadow="2"
     inkscape:pageopacity="0.0"
     inkscape:pagecheckerboard="0"
     inkscape:document-units="px"
     showgrid="false"
     inkscape:zoom="4"
     inkscape:cx="82"
     inkscape:cy="96.25"
     inkscape:window-width="1920"
     inkscape:window-height="1011"
     inkscape:window-x="0"
     inkscape:window-y="32"
     inkscape:window-maximized="1"
     inkscape:current-layer="layer1"
     inkscape:showpageshadow="2"
     inkscape:deskcolor="#d1d1d1">
    <inkscape:grid
       type="xygrid"
       id="grid846"
       originx="0"
       originy="0" />
  </sodipodi:namedview>
  <defs
     id="defs2" />
  <g
     inkscape:label="Camada 1"
     inkscape:groupmode="layer"
     id="layer1">
    <path
       id="path864"
       style="fill:#ffffff;fill-opacity:1;stroke:none;stroke-width:0.771399;stroke-linecap:butt;stroke-linejoin:miter;stroke-miterlimit:4;stroke-dasharray:none;stroke-opacity:1"
       d="M 64,16 51.482846,28.515647 h 8.727958 L 64,24.726452 90.22757,50.954017 V 42.227565 Z M 30.058445,30.058445 v 17.69999 l 6.171192,-6.171192 v -5.357605 h 37.091932 l -6.171188,-6.171192 z m 50.181609,0 6.171193,6.171192 h 5.359112 v 37.091932 l 6.1712,-6.171188 V 30.058445 Z M 42.227565,37.772435 16,64 28.515647,76.515647 V 67.787689 L 24.726452,64 50.954017,37.772435 Z m 57.256784,13.710411 v 8.727958 L 103.27355,64 77.045984,90.22757 h 8.726451 L 112,64 Z m -63.254712,3.195581 -6.171192,6.171193 v 37.091939 h 17.69999 l -6.171192,-6.1712 h -5.357605 z m 1.542797,22.367558 v 8.72645 L 64,112 76.515647,99.484349 H 67.787689 L 64,103.27355 Z m 60.169125,3.194069 -6.1712,6.171193 v 5.359112 H 54.678427 l 6.171193,6.1712 h 37.091939 z" />
  </g>
</svg>
