<?xml version="1.0" encoding="UTF-8" standalone="no"?>
<!-- Created with Inkscape (http://www.inkscape.org/) -->

<svg
   width="42"
   height="42"
   viewBox="0 0 42 42"
   version="1.1"
   id="svg5"
   xml:space="preserve"
   inkscape:version="1.2.2 (b0a8486541, 2022-12-01)"
   sodipodi:docname="menu-mastodon.svg"
   xmlns:inkscape="http://www.inkscape.org/namespaces/inkscape"
   xmlns:sodipodi="http://sodipodi.sourceforge.net/DTD/sodipodi-0.dtd"
   xmlns="http://www.w3.org/2000/svg"
   xmlns:svg="http://www.w3.org/2000/svg"><sodipodi:namedview
     id="namedview7"
     pagecolor="#ffffff"
     bordercolor="#000000"
     borderopacity="0.25"
     inkscape:showpageshadow="2"
     inkscape:pageopacity="0.0"
     inkscape:pagecheckerboard="0"
     inkscape:deskcolor="#d1d1d1"
     inkscape:document-units="px"
     showgrid="false"
     inkscape:zoom="8"
     inkscape:cx="62.1875"
     inkscape:cy="5.375"
     inkscape:window-width="1635"
     inkscape:window-height="749"
     inkscape:window-x="50"
     inkscape:window-y="118"
     inkscape:window-maximized="0"
     inkscape:current-layer="layer1" /><defs
     id="defs2"><linearGradient
       id="paint0_linear_89_8"
       x1="30.5"
       y1="0"
       x2="30.5"
       y2="65"
       gradientUnits="userSpaceOnUse"
       gradientTransform="translate(54.749998,-41.749982)"><stop
         stop-color="#6364FF"
         id="stop1190" /><stop
         offset="1"
         stop-color="#563ACC"
         id="stop1192" /></linearGradient></defs><g
     inkscape:label="Camada 1"
     inkscape:groupmode="layer"
     id="layer1"><path
       id="path1186"
       style="fill:#ffffff;fill-opacity:1;stroke-width:0.492312"
       d="M 20.713369,5 C 15.451743,5 14.322266,5.322822 13.722926,5.411542 10.2695,5.922046 7.1159151,8.356628 6.3507491,11.835634 c -0.368036,1.713342 -0.406835,3.613426 -0.338464,5.355814 0.09746,2.498727 0.11634,4.992297 0.343272,7.480832 0.156884,1.653034 0.430814,3.293346 0.819237,4.907734 0.727346,2.981585 3.6711709,5.462763 6.5558239,6.475054 3.088417,1.055663 6.409989,1.230554 9.592389,0.505773 0.350082,-0.08143 0.69614,-0.175987 1.037508,-0.283656 0.773864,-0.245762 1.679929,-0.520034 2.346174,-1.002893 0.0092,-0.0068 0.01685,-0.01592 0.02212,-0.02596 0.0053,-0.01009 0.0083,-0.02132 0.0087,-0.03269 v -2.411559 c -1.97e-4,-0.01063 -0.003,-0.02026 -0.0077,-0.02981 -0.0047,-0.0095 -0.01182,-0.01845 -0.02019,-0.025 -0.0084,-0.0065 -0.01846,-0.01115 -0.02885,-0.01346 -0.01034,-0.0023 -0.02043,-0.0024 -0.03077,0 -2.038956,0.486995 -4.128741,0.731731 -6.225052,0.727891 -3.607608,0 -4.577998,-1.71235 -4.85581,-2.42502 -0.223361,-0.615931 -0.364492,-1.257887 -0.421157,-1.910593 -5.91e-4,-0.01093 0.0013,-0.02265 0.0058,-0.03269 0.0044,-0.01 0.01071,-0.01902 0.01923,-0.02596 0.0085,-0.0069 0.01908,-0.01115 0.02981,-0.01346 0.01073,-0.0024 0.0211,-0.0028 0.03173,0 2.004938,0.483646 4.06059,0.728432 6.123128,0.727891 0.496004,0 0.990499,-3.67e-4 1.486552,-0.01346 2.074353,-0.05819 4.261048,-0.163979 6.301978,-0.562505 0.0509,-0.01019 0.101574,-0.0196 0.145192,-0.03269 3.219222,-0.618147 6.282948,-2.558147 6.594286,-7.471217 0.01162,-0.193429 0.04038,-2.026226 0.04038,-2.226942 0.0015,-0.682146 0.21994,-4.838406 -0.03173,-7.392369 C 35.431759,8.646396 32.435057,5.936608 28.882737,5.411556 28.283329,5.322822 26.012942,5 20.752793,5 Z m -4.38946,5.235621 c 1.732543,0 3.042599,0.666316 3.915418,1.997132 l 0.841353,1.413473 0.844238,-1.413473 c 0.872818,-1.330816 2.181934,-1.997132 3.911571,-1.997132 1.495445,0 2.701823,0.52655 3.624071,1.551936 0.890296,1.026813 1.334647,2.413373 1.333662,4.15965 v 8.542379 h -3.385604 v -8.290454 c 0,-1.745342 -0.727305,-2.635599 -2.20675,-2.635599 -1.62635,0 -2.440405,1.052851 -2.440405,3.132719 v 4.538499 h -3.364451 v -4.538499 c 0,-2.079868 -0.816939,-3.132719 -2.44329,-3.132719 -1.470681,0 -2.204826,0.890257 -2.204826,2.635599 v 8.290454 h -3.383682 v -8.542379 c 0,-1.745342 0.445319,-3.131852 1.33655,-4.15965 0.919391,-1.025386 2.125273,-1.551936 3.622145,-1.551936 z" /></g></svg>
