<?xml version="1.0" encoding="UTF-8" standalone="no"?>
<!-- Created with Inkscape (http://www.inkscape.org/) -->

<svg
   width="42"
   height="42"
   viewBox="0 0 42 42"
   version="1.1"
   id="svg5"
   xml:space="preserve"
   inkscape:version="1.2.2 (b0a8486541, 2022-12-01)"
   sodipodi:docname="menu-reddit.svg"
   xmlns:inkscape="http://www.inkscape.org/namespaces/inkscape"
   xmlns:sodipodi="http://sodipodi.sourceforge.net/DTD/sodipodi-0.dtd"
   xmlns="http://www.w3.org/2000/svg"
   xmlns:svg="http://www.w3.org/2000/svg"><sodipodi:namedview
     id="namedview7"
     pagecolor="#ffffff"
     bordercolor="#000000"
     borderopacity="0.25"
     inkscape:showpageshadow="2"
     inkscape:pageopacity="0.0"
     inkscape:pagecheckerboard="0"
     inkscape:deskcolor="#d1d1d1"
     inkscape:document-units="px"
     showgrid="false"
     inkscape:zoom="8"
     inkscape:cx="54.1875"
     inkscape:cy="17.25"
     inkscape:window-width="1635"
     inkscape:window-height="749"
     inkscape:window-x="50"
     inkscape:window-y="118"
     inkscape:window-maximized="0"
     inkscape:current-layer="layer1" /><defs
     id="defs2" /><g
     inkscape:label="Camada 1"
     inkscape:groupmode="layer"
     id="layer1"><path
       id="path1116"
       style="fill:#ffffff;fill-opacity:1;stroke-width:0.444444"
       d="M 21,5 C 12.155565,5 4.9999998,12.155564 4.9999998,21 4.9999998,29.844435 12.155565,37 21,37 29.844436,37 37,29.844435 37,21 37,12.155564 29.844436,5 21,5 Z m 6.666016,6.357422 c 0.888888,0 1.644531,0.709245 1.644531,1.642578 0,0.888888 -0.711199,1.644531 -1.644531,1.644531 -0.888888,0 -1.600092,-0.710721 -1.644532,-1.599609 l -3.464843,-0.75586 -1.06836,5.023438 c 2.444443,0.08889 4.622658,0.844445 6.222657,2 0.399999,-0.4 0.977386,-0.667969 1.599609,-0.667969 1.288887,0 2.355469,1.066581 2.355469,2.355469 0,0.933332 -0.576477,1.778732 -1.332032,2.089844 0.04444,0.222221 0.04297,0.488714 0.04297,0.710937 0,3.599997 -4.176481,6.488281 -9.332031,6.488281 -5.155551,0 -9.333984,-2.888284 -9.333984,-6.488281 0,-0.222223 4.81e-4,-0.488716 0.04492,-0.710937 -0.799999,-0.355556 -1.378906,-1.19948 -1.378906,-2.132813 0,-1.288888 1.068534,-2.355469 2.357422,-2.355469 0.622221,0 1.19961,0.266016 1.599609,0.666016 1.644443,-1.155554 3.866584,-1.910638 6.355469,-1.955078 v -0.08984 l 1.154297,-5.466797 c 0,-0.133333 0.08884,-0.221185 0.177734,-0.265625 0.08889,-0.04444 0.22361,-0.08936 0.3125,-0.04492 l 3.865235,0.84375 c 0.266666,-0.533333 0.80013,-0.93164 1.466797,-0.93164 z M 17.355469,21 c -0.933332,0 -1.689453,0.75612 -1.689453,1.689453 0,0.888887 0.756121,1.644531 1.689453,1.644531 C 18.244357,24.333984 19,23.622785 19,22.689453 19,21.75612 18.288801,21 17.355469,21 Z m 7.289062,0 C 23.755643,21 23,21.75612 23,22.689453 c 0,0.888887 0.711199,1.644531 1.644531,1.644531 0.933332,0 1.688971,-0.755644 1.644531,-1.644531 C 26.289062,21.75612 25.533419,21 24.644531,21 Z m -7.289062,5.333984 c -0.111111,0 -0.221658,0.04392 -0.310547,0.132813 -0.177778,0.177778 -0.177778,0.445269 0,0.623047 1.155555,1.155552 3.332857,1.24414 3.955078,1.24414 0.622222,0 2.799523,-0.08859 3.955078,-1.24414 0.177778,-0.177778 0.177778,-0.445269 0,-0.623047 -0.177778,-0.177777 -0.443316,-0.177777 -0.621094,0 -0.71111,0.71111 -2.222873,0.978515 -3.333984,0.978515 -1.066665,0 -2.622874,-0.267405 -3.333984,-0.978515 -0.08889,-0.08889 -0.199436,-0.132813 -0.310547,-0.132813 z" /></g></svg>
