<?xml version="1.0" encoding="UTF-8" standalone="no"?>
<!-- Created with Inkscape (http://www.inkscape.org/) -->

<svg
   width="42"
   height="42"
   viewBox="0 0 42 42"
   version="1.1"
   id="svg5"
   xml:space="preserve"
   inkscape:version="1.2.2 (b0a8486541, 2022-12-01)"
   sodipodi:docname="menu-twitter.svg"
   xmlns:inkscape="http://www.inkscape.org/namespaces/inkscape"
   xmlns:sodipodi="http://sodipodi.sourceforge.net/DTD/sodipodi-0.dtd"
   xmlns="http://www.w3.org/2000/svg"
   xmlns:svg="http://www.w3.org/2000/svg"><sodipodi:namedview
     id="namedview7"
     pagecolor="#ffffff"
     bordercolor="#000000"
     borderopacity="0.25"
     inkscape:showpageshadow="2"
     inkscape:pageopacity="0.0"
     inkscape:pagecheckerboard="0"
     inkscape:deskcolor="#d1d1d1"
     inkscape:document-units="px"
     showgrid="false"
     inkscape:zoom="5.6568542"
     inkscape:cx="43.752232"
     inkscape:cy="12.020815"
     inkscape:window-width="1635"
     inkscape:window-height="749"
     inkscape:window-x="50"
     inkscape:window-y="118"
     inkscape:window-maximized="0"
     inkscape:current-layer="layer1" /><defs
     id="defs2" /><g
     inkscape:label="Camada 1"
     inkscape:groupmode="layer"
     id="layer1"><path
       fill="#1d9bf0"
       d="m 33.723947,14.472096 c 0.0195,0.282106 0.0195,0.564213 0.0195,0.848915 0,8.675031 -6.604103,18.679991 -18.679992,18.679991 v -0.0052 C 11.496202,34.001002 8.0030471,32.97923 5,31.0526 c 0.5187084,0.0624 1.040016,0.0936 1.562624,0.0949 2.9562462,0.0026 5.827991,-0.989316 8.153728,-2.815844 -2.809344,-0.0533 -5.2728827,-1.885029 -6.133496,-4.559171 0.9841156,0.189804 1.998132,0.1508 2.964046,-0.113102 C 8.4840542,23.040576 6.28052,20.349536 6.28052,17.224282 v -0.0832 c 0.9126142,0.508312 1.9344302,0.790409 2.9796462,0.821609 C 6.3754213,16.034762 5.486208,12.197109 7.2282347,9.1966559 10.561487,13.29822 15.479464,15.79166 20.758846,16.055562 c -0.529108,-2.280231 0.193703,-4.669671 1.89933,-6.2725949 2.644241,-2.4856356 6.803006,-2.35824 9.288645,0.2847019 1.470323,-0.2899019 2.879545,-0.8294131 4.169165,-1.5938219 -0.490108,1.5197244 -1.515823,2.8106399 -2.886045,3.6309599 1.30132,-0.153405 2.57274,-0.501813 3.770059,-1.03352 -0.881413,1.320818 -1.991631,2.471342 -3.276052,3.400853 z"
       id="path894"
       style="fill:#ffffff;fill-opacity:1;stroke-width:0.130002" /></g></svg>
